<svg width="15" height="15" viewBox="0 0 15 15" fill="currentColor" xmlns="http://www.w3.org/2000/svg">
<path d="M7.75 4.56818C5.99364 4.56818 4.56818 5.99364 4.56818 7.75C4.56818 9.50636 5.99364 10.9318 7.75 10.9318C9.50636 10.9318 10.9318 9.50636 10.9318 7.75C10.9318 5.99364 9.50636 4.56818 7.75 4.56818ZM1.38636 8.38636H2.65909C3.00909 8.38636 3.29545 8.1 3.29545 7.75C3.29545 7.4 3.00909 7.11364 2.65909 7.11364H1.38636C1.03636 7.11364 0.75 7.4 0.75 7.75C0.75 8.1 1.03636 8.38636 1.38636 8.38636ZM12.8409 8.38636H14.1136C14.4636 8.38636 14.75 8.1 14.75 7.75C14.75 7.4 14.4636 7.11364 14.1136 7.11364H12.8409C12.4909 7.11364 12.2045 7.4 12.2045 7.75C12.2045 8.1 12.4909 8.38636 12.8409 8.38636ZM7.11364 1.38636V2.65909C7.11364 3.00909 7.4 3.29545 7.75 3.29545C8.1 3.29545 8.38636 3.00909 8.38636 2.65909V1.38636C8.38636 1.03636 8.1 0.75 7.75 0.75C7.4 0.75 7.11364 1.03636 7.11364 1.38636ZM7.11364 12.8409V14.1136C7.11364 14.4636 7.4 14.75 7.75 14.75C8.1 14.75 8.38636 14.4636 8.38636 14.1136V12.8409C8.38636 12.4909 8.1 12.2045 7.75 12.2045C7.4 12.2045 7.11364 12.4909 7.11364 12.8409ZM3.92545 3.02818C3.67727 2.78 3.27 2.78 3.02818 3.02818C2.78 3.27636 2.78 3.68364 3.02818 3.92545L3.70273 4.6C3.95091 4.84818 4.35818 4.84818 4.6 4.6C4.84182 4.35182 4.84818 3.94455 4.6 3.70273L3.92545 3.02818ZM11.7973 10.9C11.5491 10.6518 11.1418 10.6518 10.9 10.9C10.6518 11.1482 10.6518 11.5555 10.9 11.7973L11.5745 12.4718C11.8227 12.72 12.23 12.72 12.4718 12.4718C12.72 12.2236 12.72 11.8164 12.4718 11.5745L11.7973 10.9ZM12.4718 3.92545C12.72 3.67727 12.72 3.27 12.4718 3.02818C12.2236 2.78 11.8164 2.78 11.5745 3.02818L10.9 3.70273C10.6518 3.95091 10.6518 4.35818 10.9 4.6C11.1482 4.84182 11.5555 4.84818 11.7973 4.6L12.4718 3.92545ZM4.6 11.7973C4.84818 11.5491 4.84818 11.1418 4.6 10.9C4.35182 10.6518 3.94455 10.6518 3.70273 10.9L3.02818 11.5745C2.78 11.8227 2.78 12.23 3.02818 12.4718C3.27636 12.7136 3.68364 12.72 3.92545 12.4718L4.6 11.7973Z" fill="currentColor"/>
</svg>
